<svg xmlns="http://www.w3.org/2000/svg" xmlns:xlink="http://www.w3.org/1999/xlink" width="64" zoomAndPan="magnify" viewBox="0 0 48 48" height="64" preserveAspectRatio="xMidYMid meet" version="1.0"><defs><g/><clipPath id="b98b93c9aa"><path d="M 0.488281 0 L 22 0 L 22 42.554688 L 0.488281 42.554688 Z M 0.488281 0 " clip-rule="nonzero"/></clipPath><clipPath id="4f24ed0b35"><path d="M 0.488281 6 L 21.644531 6 L 21.644531 37 L 0.488281 37 Z M 0.488281 6 " clip-rule="nonzero"/></clipPath><clipPath id="50970880ce"><rect x="0" width="22" y="0" height="43"/></clipPath><clipPath id="cdd04d7edf"><path d="M 19 0 L 38.808594 0 L 38.808594 42 L 19 42 Z M 19 0 " clip-rule="nonzero"/></clipPath><clipPath id="e8bdb6b965"><path d="M 1 12 L 19.808594 12 L 19.808594 36 L 1 36 Z M 1 12 " clip-rule="nonzero"/></clipPath><clipPath id="9edcc8a0a7"><rect x="0" width="20" y="0" height="42"/></clipPath><clipPath id="7a9014f7ac"><rect x="0" width="39" y="0" height="43"/></clipPath></defs><g transform="matrix(1, 0, 0, 1, 4, 0.000000000000005041)"><g clip-path="url(#7a9014f7ac)"><g clip-path="url(#b98b93c9aa)"><g transform="matrix(1, 0, 0, 1, -0.000000000000000888, 0.000000000000005041)"><g clip-path="url(#50970880ce)"><g clip-path="url(#4f24ed0b35)"><g fill="#8cc640" fill-opacity="1"><g transform="translate(1.850748, 34.104884)"><g><path d="M 7.921875 1.941406 C 7.5 1.941406 7.039062 1.929688 6.550781 1.898438 L 5.226562 1.820312 C 4.761719 1.792969 4.34375 1.757812 3.972656 1.714844 C 3.503906 1.660156 3.125 1.585938 2.84375 1.492188 L 3.457031 -0.347656 L 2.960938 1.527344 C 2.230469 1.335938 1.617188 1.054688 1.117188 0.6875 C 0.519531 0.246094 0.0703125 -0.359375 -0.234375 -1.132812 C -0.46875 -1.730469 -0.628906 -2.472656 -0.710938 -3.355469 C -0.78125 -4.113281 -0.816406 -5.066406 -0.816406 -6.214844 L -0.816406 -19.730469 C -0.816406 -20.589844 -0.800781 -21.3125 -0.773438 -21.898438 C -0.746094 -22.554688 -0.679688 -23.125 -0.582031 -23.609375 C -0.472656 -24.167969 -0.320312 -24.640625 -0.125 -25.027344 C 0.0664062 -25.410156 0.304688 -25.765625 0.597656 -26.097656 L 0.640625 -26.148438 L 0.683594 -26.191406 C 1.171875 -26.679688 1.742188 -27.042969 2.398438 -27.285156 C 2.957031 -27.488281 3.660156 -27.625 4.511719 -27.6875 L 4.660156 -25.753906 L 4.386719 -27.675781 C 4.632812 -27.710938 4.941406 -27.734375 5.316406 -27.75 L 6.25 -27.789062 L 7.160156 -27.828125 C 7.484375 -27.84375 7.742188 -27.851562 7.921875 -27.851562 L 10.410156 -27.851562 C 10.835938 -27.851562 11.296875 -27.835938 11.800781 -27.808594 L 13.144531 -27.730469 C 13.632812 -27.699219 14.078125 -27.65625 14.472656 -27.59375 C 14.816406 -27.542969 15.070312 -27.5 15.234375 -27.472656 L 15.324219 -27.457031 L 15.410156 -27.4375 C 16.140625 -27.242188 16.757812 -26.964844 17.253906 -26.59375 C 17.851562 -26.15625 18.300781 -25.546875 18.605469 -24.773438 C 18.839844 -24.175781 19 -23.445312 19.082031 -22.574219 C 19.152344 -21.828125 19.1875 -20.878906 19.1875 -19.730469 L 19.1875 -6.214844 C 19.1875 -5.355469 19.175781 -4.632812 19.148438 -4.046875 C 19.117188 -3.390625 19.054688 -2.824219 18.957031 -2.339844 C 18.84375 -1.78125 18.683594 -1.292969 18.476562 -0.878906 C 18.253906 -0.433594 17.976562 -0.0429688 17.648438 0.285156 L 16.273438 -1.085938 L 17.710938 0.21875 C 17.238281 0.738281 16.660156 1.125 15.972656 1.375 C 15.414062 1.582031 14.710938 1.714844 13.859375 1.78125 L 13.710938 -0.15625 L 13.953125 1.773438 C 13.691406 1.804688 13.378906 1.828125 13.015625 1.84375 L 12.082031 1.882812 L 11.171875 1.921875 C 10.847656 1.933594 10.59375 1.941406 10.410156 1.941406 Z M 7.921875 -1.941406 L 10.410156 -1.941406 C 10.535156 -1.941406 10.734375 -1.949219 11.007812 -1.960938 L 11.921875 -2 L 12.855469 -2.039062 C 13.109375 -2.046875 13.316406 -2.0625 13.46875 -2.082031 L 13.515625 -2.089844 L 13.5625 -2.089844 C 14.058594 -2.128906 14.414062 -2.1875 14.636719 -2.269531 C 14.726562 -2.304688 14.792969 -2.34375 14.835938 -2.394531 L 14.867188 -2.429688 L 14.902344 -2.460938 C 14.933594 -2.492188 14.96875 -2.546875 15.003906 -2.617188 C 15.054688 -2.71875 15.105469 -2.882812 15.148438 -3.101562 C 15.207031 -3.390625 15.246094 -3.769531 15.265625 -4.226562 C 15.292969 -4.753906 15.304688 -5.417969 15.304688 -6.214844 L 15.304688 -19.730469 C 15.304688 -20.757812 15.273438 -21.585938 15.214844 -22.210938 C 15.167969 -22.714844 15.09375 -23.09375 14.992188 -23.351562 C 14.96875 -23.414062 14.945312 -23.460938 14.921875 -23.492188 C 14.929688 -23.484375 14.9375 -23.480469 14.945312 -23.472656 C 14.847656 -23.542969 14.671875 -23.613281 14.421875 -23.679688 L 14.914062 -25.558594 L 14.597656 -23.640625 C 14.449219 -23.667969 14.210938 -23.703125 13.882812 -23.753906 C 13.605469 -23.796875 13.285156 -23.832031 12.917969 -23.851562 L 11.582031 -23.929688 C 11.152344 -23.953125 10.761719 -23.964844 10.410156 -23.964844 L 7.921875 -23.964844 C 7.796875 -23.964844 7.597656 -23.960938 7.328125 -23.949219 L 6.410156 -23.910156 L 5.480469 -23.871094 C 5.234375 -23.859375 5.050781 -23.847656 4.9375 -23.828125 L 4.875 -23.820312 L 4.808594 -23.816406 C 4.316406 -23.777344 3.957031 -23.71875 3.738281 -23.636719 C 3.617188 -23.59375 3.515625 -23.53125 3.433594 -23.445312 L 2.058594 -24.820312 L 3.519531 -23.542969 C 3.449219 -23.457031 3.390625 -23.375 3.347656 -23.292969 C 3.308594 -23.214844 3.269531 -23.066406 3.226562 -22.847656 C 3.167969 -22.554688 3.125 -22.179688 3.105469 -21.71875 C 3.082031 -21.191406 3.070312 -20.53125 3.070312 -19.730469 L 3.070312 -6.214844 C 3.070312 -5.1875 3.097656 -4.351562 3.15625 -3.714844 C 3.207031 -3.199219 3.28125 -2.8125 3.378906 -2.558594 C 3.40625 -2.492188 3.429688 -2.445312 3.449219 -2.417969 L 3.449219 -2.414062 C 3.445312 -2.421875 3.4375 -2.429688 3.425781 -2.4375 C 3.523438 -2.363281 3.699219 -2.292969 3.953125 -2.226562 L 4.011719 -2.210938 L 4.070312 -2.191406 C 4.097656 -2.183594 4.214844 -2.167969 4.417969 -2.144531 C 4.71875 -2.109375 5.066406 -2.078125 5.453125 -2.054688 L 6.773438 -1.976562 C 7.1875 -1.953125 7.574219 -1.941406 7.921875 -1.941406 Z M 8.699219 -18.761719 C 8.699219 -19.136719 8.683594 -19.4375 8.648438 -19.65625 C 8.636719 -19.726562 8.625 -19.773438 8.617188 -19.808594 C 8.625 -19.777344 8.644531 -19.738281 8.679688 -19.683594 C 8.789062 -19.507812 8.933594 -19.378906 9.113281 -19.300781 C 9.15625 -19.28125 9.191406 -19.269531 9.222656 -19.261719 C 9.214844 -19.265625 9.195312 -19.265625 9.167969 -19.265625 C 9.136719 -19.265625 9.117188 -19.265625 9.109375 -19.261719 C 9.140625 -19.269531 9.175781 -19.28125 9.21875 -19.300781 C 9.398438 -19.378906 9.546875 -19.507812 9.65625 -19.683594 C 9.6875 -19.738281 9.707031 -19.777344 9.71875 -19.808594 C 9.707031 -19.773438 9.695312 -19.726562 9.6875 -19.65625 C 9.652344 -19.4375 9.632812 -19.136719 9.632812 -18.761719 L 9.632812 -7.03125 C 9.632812 -6.652344 9.652344 -6.355469 9.6875 -6.132812 C 9.695312 -6.066406 9.707031 -6.015625 9.71875 -5.984375 C 9.707031 -6.011719 9.6875 -6.054688 9.65625 -6.105469 C 9.546875 -6.285156 9.398438 -6.414062 9.21875 -6.492188 C 9.175781 -6.511719 9.140625 -6.523438 9.109375 -6.527344 C 9.117188 -6.527344 9.136719 -6.527344 9.167969 -6.527344 C 9.191406 -6.527344 9.207031 -6.527344 9.210938 -6.527344 C 9.175781 -6.519531 9.136719 -6.507812 9.089844 -6.484375 C 8.910156 -6.40625 8.765625 -6.277344 8.660156 -6.097656 C 8.636719 -6.054688 8.621094 -6.023438 8.613281 -6.007812 C 8.625 -6.039062 8.636719 -6.09375 8.648438 -6.160156 C 8.683594 -6.378906 8.699219 -6.667969 8.699219 -7.03125 Z M 12.585938 -18.761719 L 12.585938 -7.03125 C 12.585938 -5.742188 12.390625 -4.773438 12.003906 -4.117188 C 11.691406 -3.589844 11.25 -3.199219 10.683594 -2.945312 C 10.234375 -2.742188 9.730469 -2.640625 9.167969 -2.640625 C 8.613281 -2.640625 8.117188 -2.738281 7.675781 -2.925781 C 7.109375 -3.175781 6.664062 -3.554688 6.347656 -4.070312 C 5.949219 -4.71875 5.75 -5.707031 5.75 -7.03125 L 5.75 -18.761719 C 5.75 -20.085938 5.949219 -21.070312 6.347656 -21.71875 C 6.664062 -22.234375 7.109375 -22.617188 7.675781 -22.863281 C 8.117188 -23.054688 8.613281 -23.148438 9.167969 -23.148438 C 9.71875 -23.148438 10.21875 -23.054688 10.65625 -22.863281 C 11.226562 -22.617188 11.667969 -22.234375 11.984375 -21.71875 C 12.386719 -21.070312 12.585938 -20.085938 12.585938 -18.761719 Z M 12.585938 -18.761719 "/></g></g></g></g><g fill="#ffffff" fill-opacity="1"><g transform="translate(1.850748, 34.104884)"><g><path d="M 7.921875 0 C 7.535156 0 7.113281 -0.0078125 6.65625 -0.03125 C 6.207031 -0.0625 5.769531 -0.0859375 5.34375 -0.109375 C 4.914062 -0.140625 4.53125 -0.171875 4.1875 -0.203125 C 3.851562 -0.242188 3.609375 -0.289062 3.453125 -0.34375 C 2.960938 -0.476562 2.566406 -0.65625 2.265625 -0.875 C 1.972656 -1.09375 1.742188 -1.414062 1.578125 -1.84375 C 1.410156 -2.269531 1.289062 -2.832031 1.21875 -3.53125 C 1.15625 -4.226562 1.125 -5.125 1.125 -6.21875 L 1.125 -19.734375 C 1.125 -20.554688 1.132812 -21.242188 1.15625 -21.796875 C 1.1875 -22.359375 1.238281 -22.832031 1.3125 -23.21875 C 1.394531 -23.613281 1.492188 -23.925781 1.609375 -24.15625 C 1.722656 -24.394531 1.875 -24.617188 2.0625 -24.828125 C 2.34375 -25.109375 2.675781 -25.316406 3.0625 -25.453125 C 3.457031 -25.597656 3.988281 -25.695312 4.65625 -25.75 C 4.84375 -25.78125 5.085938 -25.800781 5.390625 -25.8125 C 5.703125 -25.820312 6.015625 -25.832031 6.328125 -25.84375 C 6.640625 -25.863281 6.941406 -25.878906 7.234375 -25.890625 C 7.535156 -25.898438 7.765625 -25.90625 7.921875 -25.90625 L 10.40625 -25.90625 C 10.800781 -25.90625 11.226562 -25.890625 11.6875 -25.859375 C 12.15625 -25.835938 12.601562 -25.8125 13.03125 -25.78125 C 13.457031 -25.757812 13.835938 -25.722656 14.171875 -25.671875 C 14.515625 -25.617188 14.765625 -25.582031 14.921875 -25.5625 C 15.410156 -25.425781 15.800781 -25.25 16.09375 -25.03125 C 16.394531 -24.8125 16.628906 -24.488281 16.796875 -24.0625 C 16.960938 -23.632812 17.078125 -23.078125 17.140625 -22.390625 C 17.210938 -21.703125 17.25 -20.816406 17.25 -19.734375 L 17.25 -6.21875 C 17.25 -5.382812 17.234375 -4.6875 17.203125 -4.125 C 17.179688 -3.570312 17.128906 -3.101562 17.046875 -2.71875 C 16.972656 -2.332031 16.867188 -2.007812 16.734375 -1.75 C 16.609375 -1.488281 16.457031 -1.269531 16.28125 -1.09375 C 16.019531 -0.800781 15.691406 -0.582031 15.296875 -0.4375 C 14.910156 -0.300781 14.382812 -0.207031 13.71875 -0.15625 C 13.507812 -0.125 13.25 -0.101562 12.9375 -0.09375 C 12.625 -0.0820312 12.3125 -0.0664062 12 -0.046875 C 11.6875 -0.0351562 11.378906 -0.0234375 11.078125 -0.015625 C 10.785156 -0.00390625 10.5625 0 10.40625 0 Z M 10.640625 -18.765625 C 10.640625 -19.722656 10.535156 -20.367188 10.328125 -20.703125 C 10.117188 -21.035156 9.734375 -21.203125 9.171875 -21.203125 C 8.597656 -21.203125 8.207031 -21.035156 8 -20.703125 C 7.789062 -20.367188 7.6875 -19.722656 7.6875 -18.765625 L 7.6875 -7.03125 C 7.6875 -6.070312 7.789062 -5.421875 8 -5.078125 C 8.207031 -4.742188 8.597656 -4.578125 9.171875 -4.578125 C 9.734375 -4.578125 10.117188 -4.75 10.328125 -5.09375 C 10.535156 -5.445312 10.640625 -6.09375 10.640625 -7.03125 Z M 10.640625 -18.765625 "/></g></g></g></g></g></g><g clip-path="url(#cdd04d7edf)"><g transform="matrix(1, 0, 0, 1, 19, 0.000000000000005041)"><g clip-path="url(#9edcc8a0a7)"><g clip-path="url(#e8bdb6b965)"><g fill="#8cc640" fill-opacity="1"><g transform="translate(1.997882, 33.594903)"><g><path d="M 1.085938 -21.058594 L 8.917969 -21.058594 L 8.917969 -17.121094 L 7.042969 -17.121094 L 5.429688 -18.074219 C 5.753906 -18.621094 6.09375 -19.085938 6.457031 -19.464844 C 6.871094 -19.898438 7.335938 -20.242188 7.855469 -20.503906 C 8.359375 -20.753906 8.921875 -20.925781 9.542969 -21.019531 C 10.058594 -21.09375 10.648438 -21.132812 11.316406 -21.132812 C 12.742188 -21.132812 13.878906 -20.972656 14.714844 -20.652344 C 15.808594 -20.238281 16.597656 -19.519531 17.089844 -18.492188 L 17.121094 -18.421875 C 17.210938 -18.214844 17.285156 -18.027344 17.347656 -17.855469 C 17.453125 -17.558594 17.527344 -17.171875 17.566406 -16.691406 C 17.59375 -16.34375 17.613281 -15.855469 17.628906 -15.234375 C 17.640625 -14.632812 17.648438 -13.789062 17.648438 -12.703125 L 17.648438 1.875 L 7.941406 1.875 L 7.941406 -12.664062 C 7.941406 -12.890625 7.929688 -13.074219 7.898438 -13.214844 C 7.890625 -13.253906 7.878906 -13.28125 7.871094 -13.304688 C 7.875 -13.296875 7.882812 -13.285156 7.894531 -13.265625 C 7.957031 -13.171875 8.046875 -13.089844 8.167969 -13.03125 C 8.253906 -12.988281 8.332031 -12.964844 8.394531 -12.964844 C 8.492188 -12.964844 8.597656 -12.996094 8.710938 -13.058594 C 8.835938 -13.128906 8.929688 -13.210938 8.988281 -13.3125 C 8.992188 -13.320312 8.996094 -13.328125 9 -13.332031 C 9 -13.332031 8.996094 -13.328125 8.996094 -13.324219 C 8.984375 -13.292969 8.976562 -13.253906 8.964844 -13.207031 C 8.933594 -13.046875 8.917969 -12.839844 8.917969 -12.589844 L 8.917969 1.875 L -0.785156 1.875 L -0.785156 -21.058594 Z M 1.085938 -17.308594 L 1.085938 -19.183594 L 2.960938 -19.183594 L 2.960938 0 L 1.085938 0 L 1.085938 -1.875 L 7.042969 -1.875 L 7.042969 0 L 5.171875 0 L 5.171875 -12.589844 C 5.171875 -13.683594 5.371094 -14.566406 5.773438 -15.238281 C 6.058594 -15.714844 6.433594 -16.078125 6.894531 -16.335938 C 7.34375 -16.585938 7.84375 -16.710938 8.394531 -16.710938 C 8.929688 -16.710938 9.421875 -16.597656 9.863281 -16.371094 C 10.339844 -16.128906 10.726562 -15.78125 11.027344 -15.320312 C 11.46875 -14.648438 11.691406 -13.761719 11.691406 -12.664062 L 11.691406 0 L 9.816406 0 L 9.816406 -1.875 L 15.773438 -1.875 L 15.773438 0 L 13.902344 0 L 13.902344 -12.703125 C 13.902344 -13.761719 13.894531 -14.578125 13.882812 -15.152344 C 13.871094 -15.703125 13.851562 -16.117188 13.832031 -16.390625 C 13.824219 -16.496094 13.8125 -16.578125 13.804688 -16.636719 C 13.800781 -16.648438 13.800781 -16.65625 13.800781 -16.65625 C 13.804688 -16.632812 13.8125 -16.609375 13.824219 -16.574219 C 13.789062 -16.679688 13.738281 -16.804688 13.675781 -16.945312 L 15.398438 -17.683594 L 13.710938 -16.875 C 13.648438 -17 13.542969 -17.089844 13.386719 -17.152344 C 12.976562 -17.308594 12.285156 -17.386719 11.316406 -17.386719 C 10.832031 -17.386719 10.421875 -17.359375 10.089844 -17.3125 C 9.863281 -17.277344 9.675781 -17.226562 9.53125 -17.152344 C 9.398438 -17.085938 9.277344 -16.996094 9.167969 -16.878906 C 9.003906 -16.707031 8.835938 -16.472656 8.660156 -16.171875 L 5.171875 -10.242188 L 5.171875 -19.183594 L 7.042969 -19.183594 L 7.042969 -17.308594 Z M 1.085938 -17.308594 "/></g></g></g></g><g fill="#ffffff" fill-opacity="1"><g transform="translate(1.997882, 33.594903)"><g><path d="M 1.09375 -19.1875 L 7.046875 -19.1875 L 7.046875 -17.125 C 7.296875 -17.550781 7.550781 -17.898438 7.8125 -18.171875 C 8.070312 -18.441406 8.363281 -18.660156 8.6875 -18.828125 C 9.019531 -18.992188 9.394531 -19.109375 9.8125 -19.171875 C 10.238281 -19.234375 10.738281 -19.265625 11.3125 -19.265625 C 12.507812 -19.265625 13.421875 -19.144531 14.046875 -18.90625 C 14.671875 -18.664062 15.125 -18.257812 15.40625 -17.6875 C 15.476562 -17.507812 15.535156 -17.351562 15.578125 -17.21875 C 15.628906 -17.082031 15.664062 -16.859375 15.6875 -16.546875 C 15.71875 -16.234375 15.738281 -15.78125 15.75 -15.1875 C 15.769531 -14.601562 15.78125 -13.773438 15.78125 -12.703125 L 15.78125 0 L 9.8125 0 L 9.8125 -12.671875 C 9.8125 -14.117188 9.335938 -14.84375 8.390625 -14.84375 C 7.492188 -14.84375 7.046875 -14.09375 7.046875 -12.59375 L 7.046875 0 L 1.09375 0 Z M 1.09375 -19.1875 "/></g></g></g></g></g></g></g></g></svg>