<svg fill="#e8e8ef" role="img" viewBox="0 0 24 24" xmlns="http://www.w3.org/2000/svg"><title>Canva</title><path d="M12 0C5.373 0 0 5.373 0 12s5.373 12 12 12 12-5.373 12-12S18.627 0 12 0zm3.804 16.896c-.732.732-1.788 1.2-2.916 1.2-2.484 0-4.8-2.148-4.8-5.4 0-3.48 2.64-6.6 6.48-6.6 1.668 0 2.892.624 3.528 1.26a.6.6 0 0 1 0 .852l-.708.708a.6.6 0 0 1-.852 0c-.408-.36-1.104-.72-1.968-.72-2.4 0-4.08 2.1-4.08 4.5 0 2.172 1.44 3.3 2.4 3.3.744 0 1.344-.336 1.668-.66v-1.44h-1.2a.6.6 0 0 1-.6-.6v-.96a.6.6 0 0 1 .6-.6h3.048a.6.6 0 0 1 .6.6v3.204a.6.6 0 0 1-.168.408z"/></svg>
