<svg xmlns="http://www.w3.org/2000/svg" viewBox="0 0 24 24" fill="#ffffff">
  <path d="M7.42 10.05c-.18-.16-.46-.23-.84-.23H6v4.36h.58c.37 0 .65-.08.84-.23.2-.16.3-.46.3-.91v-2.07c0-.45-.1-.74-.3-.92zM0 4.94v14.12h24V4.94H0zM8.56 15.3c-.44.58-1.06.77-2.53.77H4.71V8.53h1.4c1.67 0 2.16.18 2.6.9.27.43.29.6.29 2.72 0 2.24-.02 2.37-.44 3.15zm2.36-6.53H9.25v7.82h1.67v-7.82zm5.55 7.82c-1.68 0-2.45-.41-2.86-1.6-.14-.42-.18-.78-.18-2.66 0-1.79.03-2.28.18-2.73.49-1.22 1.28-1.63 2.97-1.63 1.6 0 2.3.44 2.76 1.42.26.55.3.8.3 2.94 0 2.14-.04 2.39-.3 2.94-.46.98-1.16 1.32-2.87 1.32zm.38-7.47c-.36-.33-.8-.5-1.36-.5-.54 0-.98.17-1.36.5-.37.34-.56.82-.56 1.44v3.94c0 .63.19 1.11.56 1.44.38.34.82.5 1.36.5.55 0 .99-.17 1.36-.5.38-.34.56-.82.56-1.44v-3.94c0-.62-.18-1.1-.56-1.44z"/>
</svg>
