<svg fill="#e8e8ef" role="img" viewBox="0 0 24 24" xmlns="http://www.w3.org/2000/svg"><title>Monday.com</title><path d="M2.571 17.152a2.572 2.572 0 0 1-2.205-3.87l4.367-7.313a2.572 2.572 0 0 1 4.442.039l4.312 7.313a2.572 2.572 0 0 1-2.237 3.83 2.572 2.572 0 0 1-2.204-1.25L6.96 12.34a.857.857 0 0 0-1.493-.006l-1.005 1.684-.685 1.146a2.571 2.571 0 0 1-2.205 1.988zm18.857 0a2.572 2.572 0 0 1-2.205-3.87l1.689-2.83a2.572 2.572 0 0 1 4.442.04l1.689 2.83a.857.857 0 0 1-.746 1.29h-.04a.857.857 0 0 1-.746-.44l-.452-.756-.491-.821a.857.857 0 0 0-1.493-.007l-.442.74-.491.82a2.572 2.572 0 0 1-2.205 1.988z"/></svg>
