<svg fill="#e8e8ef" role="img" viewBox="0 0 24 24" xmlns="http://www.w3.org/2000/svg"><title>Salesforce</title><path d="M10.006 5.415a4.195 4.195 0 0 1 3.045-1.306c1.56 0 2.954.9 3.69 2.205a5.034 5.034 0 0 1 2.16-.495C21.21 5.82 23.4 7.98 23.4 10.68c0 2.7-2.19 4.86-4.5 4.86-.36 0-.72-.045-1.065-.135a3.42 3.42 0 0 1-3.015 1.815 3.6 3.6 0 0 1-1.29-.255 4.35 4.35 0 0 1-3.885 2.415c-1.905 0-3.555-1.29-4.17-3.075a3.6 3.6 0 0 1-.585.045c-2.31 0-4.29-1.86-4.29-4.29 0-1.665.975-3.105 2.37-3.84A4.44 4.44 0 0 1 7.08 4.11a4.44 4.44 0 0 1 2.925 1.305z"/></svg>
