<svg fill="#e8e8ef" role="img" viewBox="0 0 24 24" xmlns="http://www.w3.org/2000/svg"><title>Twilio</title><path d="M12 0C5.381 0 0 5.381 0 12s5.381 12 12 12 12-5.381 12-12S18.619 0 12 0zm0 20.756c-4.831 0-8.756-3.924-8.756-8.756S7.169 3.244 12 3.244s8.756 3.924 8.756 8.756-3.924 8.756-8.756 8.756zm4.117-11.559a1.86 1.86 0 1 1-3.72 0 1.86 1.86 0 0 1 3.72 0zm0 5.606a1.86 1.86 0 1 1-3.72 0 1.86 1.86 0 0 1 3.72 0zm-5.606 0a1.86 1.86 0 1 1-3.72 0 1.86 1.86 0 0 1 3.72 0zm0-5.606a1.86 1.86 0 1 1-3.72 0 1.86 1.86 0 0 1 3.72 0z"/></svg>
