<svg xmlns="http://www.w3.org/2000/svg" width="48" height="48" viewBox="0 0 48 48" fill="none" stroke="#7ed957" stroke-width="2" stroke-linecap="round" stroke-linejoin="round">
  <path d="M8 24a16 16 0 0 1 32 0"/>
  <path d="M8 24v8a4 4 0 0 0 4 4h2a2 2 0 0 0 2-2v-8a2 2 0 0 0-2-2h-2a4 4 0 0 0-4 4z"/>
  <path d="M40 24v8a4 4 0 0 1-4 4h-2a2 2 0 0 1-2-2v-8a2 2 0 0 1 2-2h2a4 4 0 0 1 4 4z"/>
  <path d="M36 36c0 4-5.4 6-12 6"/>
  <circle cx="24" cy="42" r="2"/>
  <circle cx="24" cy="10" r="1.5" fill="#7ed957" stroke="none"/>
  <path d="M20 10l-2-4" opacity="0.5"/>
  <path d="M28 10l2-4" opacity="0.5"/>
  <path d="M24 10v-6" opacity="0.5"/>
</svg>
