<svg xmlns="http://www.w3.org/2000/svg" width="48" height="48" viewBox="0 0 48 48" fill="none" stroke="#7ed957" stroke-width="2" stroke-linecap="round" stroke-linejoin="round">
  <path d="M6 18l3-12h30l3 12"/>
  <path d="M6 18c0 3 2 5 5 5s5-2 5-5"/>
  <path d="M16 18c0 3 2 5 5 5s5-2 5-5"/>
  <path d="M26 18c0 3 2 5 5 5s5-2 5-5"/>
  <path d="M36 18c0 3 2 5 5 5"/>
  <path d="M6 18c0 3-1 5 1 5"/>
  <rect x="8" y="23" width="32" height="19" rx="2"/>
  <rect x="18" y="30" width="12" height="12"/>
</svg>
